<?xml version="1.0" encoding="UTF-8"?>
<!DOCTYPE svg PUBLIC "-//W3C//DTD SVG 1.1//EN" "http://www.w3.org/Graphics/SVG/1.1/DTD/svg11.dtd">
<!-- Creator: CorelDRAW 2021 (64-Bit) -->
<?xml-stylesheet href="square.css" type="text/css"?>
<svg xmlns="http://www.w3.org/2000/svg" xml:space="preserve" width="356px" height="356px" fill='#494949' version="1.1" style="shape-rendering:geometricPrecision; text-rendering:geometricPrecision; image-rendering:optimizeQuality; fill-rule:evenodd; clip-rule:evenodd"
viewBox="0 0 300 300"
 xmlns:xlink="http://www.w3.org/1999/xlink"
 xmlns:xodm="http://www.corel.com/coreldraw/odm/2003">
 <g id="Слой_x0020_1">
  <metadata id="CorelCorpID_0Corel-Layer"/>
  <path class="fil0 str0" d="M2.8 2.8c39.08,0 78.16,0 117.24,0 0,16.55 13.41,29.96 29.96,29.96 16.55,0 29.96,-13.41 29.96,-29.96 39.08,0 78.16,0 117.24,0 0,39.08 0,78.16 0,117.24 -16.55,0 -29.96,13.41 -29.96,29.96 0,16.55 13.41,29.96 29.96,29.96 0,39.08 0,78.16 0,117.24 -39.08,0 -78.16,0 -117.24,0 0,-16.55 -13.41,-29.96 -29.96,-29.96 -16.55,0 -29.96,13.41 -29.96,29.96 -39.08,0 -78.16,0 -117.24,0 0,-39.08 0,-78.16 0,-117.24 16.55,0 29.96,-13.41 29.96,-29.96 0,-16.55 -13.41,-29.96 -29.96,-29.96 0,-39.08 0,-78.16 0,-117.24z"/>
 </g>
</svg>
